<svg id="SvgjsSvg1006" width="760.7624816894531" height="266.5" xmlns="http://www.w3.org/2000/svg" version="1.1" xmlns:xlink="http://www.w3.org/1999/xlink" xmlns:svgjs="http://svgjs.com/svgjs"><defs id="SvgjsDefs1007"><marker id="SvgjsMarker1014" markerWidth="16" markerHeight="12" refX="10" refY="6" viewBox="0 0 16 12" orient="auto" markerUnits="userSpaceOnUse" stroke-dasharray="0,0"><path id="SvgjsPath1015" d="M0,3 L10,6 L0,9 L0,3" fill="#323232" stroke="#323232" stroke-width="1"></path></marker><pattern id="SvgjsPattern1022" x="0" y="0" width="20" height="20" patternUnits="userSpaceOnUse"><image id="SvgjsImage1023" xlink:href="https://www.processon.com/assets/images/designer/network_aws2019/general/Users_light-bg.svg" width="20" height="20" preserveAspectRatio="none" crossOrigin="anonymous" x="0" y="0"></image></pattern><marker id="SvgjsMarker1034" markerWidth="16" markerHeight="12" refX="10" refY="6" viewBox="0 0 16 12" orient="auto" markerUnits="userSpaceOnUse" stroke-dasharray="0,0"><path id="SvgjsPath1035" d="M0,3 L10,6 L0,9 L0,3" fill="#323232" stroke="#323232" stroke-width="1"></path></marker><pattern id="SvgjsPattern1042" x="0" y="0" width="20" height="20" patternUnits="userSpaceOnUse"><image id="SvgjsImage1043" xlink:href="https://www.processon.com/assets/images/designer/network_aws2019/general/Users_light-bg.svg" width="20" height="20" preserveAspectRatio="none" crossOrigin="anonymous" x="0" y="0"></image></pattern><marker id="SvgjsMarker1054" markerWidth="16" markerHeight="12" refX="10" refY="6" viewBox="0 0 16 12" orient="auto" markerUnits="userSpaceOnUse" stroke-dasharray="0,0"><path id="SvgjsPath1055" d="M0,3 L10,6 L0,9 L0,3" fill="#323232" stroke="#323232" stroke-width="1"></path></marker><pattern id="SvgjsPattern1062" x="0" y="0" width="20" height="20" patternUnits="userSpaceOnUse"><image id="SvgjsImage1063" xlink:href="https://www.processon.com/assets/images/designer/network_aws2019/general/Users_light-bg.svg" width="20" height="20" preserveAspectRatio="none" crossOrigin="anonymous" x="0" y="0"></image></pattern><marker id="SvgjsMarker1074" markerWidth="16" markerHeight="12" refX="10" refY="6" viewBox="0 0 16 12" orient="auto" markerUnits="userSpaceOnUse" stroke-dasharray="0,0"><path id="SvgjsPath1075" d="M0,3 L10,6 L0,9 L0,3" fill="#323232" stroke="#323232" stroke-width="1"></path></marker><pattern id="SvgjsPattern1082" x="0" y="0" width="20" height="20" patternUnits="userSpaceOnUse"><image id="SvgjsImage1083" xlink:href="https://www.processon.com/assets/images/designer/network_aws2019/general/Users_light-bg.svg" width="20" height="20" preserveAspectRatio="none" crossOrigin="anonymous" x="0" y="0"></image></pattern><marker id="SvgjsMarker1094" markerWidth="16" markerHeight="12" refX="10" refY="6" viewBox="0 0 16 12" orient="auto" markerUnits="userSpaceOnUse" stroke-dasharray="0,0"><path id="SvgjsPath1095" d="M0,3 L10,6 L0,9 L0,3" fill="#323232" stroke="#323232" stroke-width="1"></path></marker><pattern id="SvgjsPattern1102" x="0" y="0" width="20" height="20" patternUnits="userSpaceOnUse"><image id="SvgjsImage1103" xlink:href="https://www.processon.com/assets/images/designer/network_aws2019/general/Users_light-bg.svg" width="20" height="20" preserveAspectRatio="none" crossOrigin="anonymous" x="0" y="0"></image></pattern><marker id="SvgjsMarker1114" markerWidth="16" markerHeight="12" refX="10" refY="6" viewBox="0 0 16 12" orient="auto" markerUnits="userSpaceOnUse" stroke-dasharray="0,0"><path id="SvgjsPath1115" d="M0,3 L10,6 L0,9 L0,3" fill="#323232" stroke="#323232" stroke-width="1"></path></marker><pattern id="SvgjsPattern1122" x="0" y="0" width="20" height="20" patternUnits="userSpaceOnUse"><image id="SvgjsImage1123" xlink:href="https://www.processon.com/assets/images/designer/network_aws2019/general/Users_light-bg.svg" width="20" height="20" preserveAspectRatio="none" crossOrigin="anonymous" x="0" y="0"></image></pattern><marker id="SvgjsMarker1134" markerWidth="16" markerHeight="12" refX="10" refY="6" viewBox="0 0 16 12" orient="auto" markerUnits="userSpaceOnUse" stroke-dasharray="0,0"><path id="SvgjsPath1135" d="M0,3 L10,6 L0,9 L0,3" fill="#323232" stroke="#323232" stroke-width="1"></path></marker><pattern id="SvgjsPattern1142" x="0" y="0" width="20" height="20" patternUnits="userSpaceOnUse"><image id="SvgjsImage1143" xlink:href="https://www.processon.com/assets/images/designer/network_aws2019/general/Users_light-bg.svg" width="20" height="20" preserveAspectRatio="none" crossOrigin="anonymous" x="0" y="0"></image></pattern><marker id="SvgjsMarker1154" markerWidth="16" markerHeight="12" refX="10" refY="6" viewBox="0 0 16 12" orient="auto" markerUnits="userSpaceOnUse" stroke-dasharray="0,0"><path id="SvgjsPath1155" d="M0,3 L10,6 L0,9 L0,3" fill="#323232" stroke="#323232" stroke-width="1"></path></marker></defs><g id="SvgjsG1008" transform="translate(50.012481689453125,32.24999237060547)"><path id="SvgjsPath1009" d="M 0 15.5C 0 -5.166666666666667 31 -5.166666666666667 31 15.5C 31 36.166666666666664 0 36.166666666666664 0 15.5Z" stroke="rgba(50,50,50,1)" stroke-width="2" fill-opacity="1" fill="#ccffcc"></path><g id="SvgjsG1010"><text id="SvgjsText1011" font-family="微软雅黑" text-anchor="middle" font-size="13px" width="11px" fill="#323232" font-weight="400" align="middle" anchor="middle" family="微软雅黑" size="13px" weight="400" font-style="" opacity="1" y="5.55" transform="rotate(0)"></text></g></g><g id="SvgjsG1012"><path id="SvgjsPath1013" d="M81.01248168945312 47.74999237060547L103.01248168945312 47.74999237060547L103.01248168945312 47.74999237060547L125.01248168945312 47.74999237060547" stroke="#323232" stroke-width="1" fill="none" marker-end="url(#SvgjsMarker1014)"></path></g><g id="SvgjsG1016" transform="translate(125.01248168945312,24.99999237060547)"><path id="SvgjsPath1017" d="M 0 4Q 0 0 4 0L 75 0Q 79 0 79 4L 79 41.5Q 79 45.5 75 45.5L 4 45.5Q 0 45.5 0 41.5Z" stroke="rgba(50,50,50,1)" stroke-width="2" fill-opacity="1" fill="#ffffff"></path><g id="SvgjsG1018"><text id="SvgjsText1019" font-family="微软雅黑" text-anchor="middle" font-size="13px" width="59px" fill="#323232" font-weight="400" align="middle" anchor="middle" family="微软雅黑" size="13px" weight="400" font-style="" opacity="1" y="12.8" transform="rotate(0)"></text></g></g><g id="SvgjsG1020" transform="translate(176.01248168945312,32.24999237060547)"><path id="SvgjsPath1021" d="M 0 0L 20 0L 20 20L 0 20Z" stroke="none" fill="url(#SvgjsPattern1022)"></path><g id="SvgjsG1024"><text id="SvgjsText1025" font-family="微软雅黑" text-anchor="middle" font-size="13px" width="60px" fill="#323232" font-weight="400" align="middle" anchor="middle" family="微软雅黑" size="13px" weight="400" font-style="" opacity="1" y="25.05" transform="rotate(0)"></text></g></g><g id="SvgjsG1026" transform="translate(124.01248168945312,77.49999237060547)"><path id="SvgjsPath1027" d="M 0 0L 81 0L 81 22.75L 0 22.75Z" stroke="none" fill="none"></path><g id="SvgjsG1028"><text id="SvgjsText1029" font-family="微软雅黑" text-anchor="middle" font-size="13px" width="81px" fill="#323232" font-weight="400" align="middle" anchor="middle" family="微软雅黑" size="13px" weight="400" font-style="" opacity="1" y="1.425" transform="rotate(0)"><tspan id="SvgjsTspan1030" dy="16" x="40.5"><tspan id="SvgjsTspan1031" style="text-decoration:;">学生申请</tspan></tspan></text></g></g><g id="SvgjsG1032"><path id="SvgjsPath1033" d="M204.01248168945312 47.74999237060547L227.01248168945312 47.74999237060547L227.01248168945312 47.74999237060547L250.01248168945312 47.74999237060547" stroke="#323232" stroke-width="1" fill="none" marker-end="url(#SvgjsMarker1034)"></path></g><g id="SvgjsG1036" transform="translate(249.01248168945312,24.99999237060547)"><path id="SvgjsPath1037" d="M 0 4Q 0 0 4 0L 75 0Q 79 0 79 4L 79 41.5Q 79 45.5 75 45.5L 4 45.5Q 0 45.5 0 41.5Z" stroke="rgba(50,50,50,1)" stroke-width="2" fill-opacity="1" fill="#ffffff"></path><g id="SvgjsG1038"><text id="SvgjsText1039" font-family="微软雅黑" text-anchor="middle" font-size="13px" width="59px" fill="#323232" font-weight="400" align="middle" anchor="middle" family="微软雅黑" size="13px" weight="400" font-style="" opacity="1" y="12.8" transform="rotate(0)"></text></g></g><g id="SvgjsG1040" transform="translate(300.0124816894531,32.24999237060547)"><path id="SvgjsPath1041" d="M 0 0L 20 0L 20 20L 0 20Z" stroke="none" fill="url(#SvgjsPattern1042)"></path><g id="SvgjsG1044"><text id="SvgjsText1045" font-family="微软雅黑" text-anchor="middle" font-size="13px" width="60px" fill="#323232" font-weight="400" align="middle" anchor="middle" family="微软雅黑" size="13px" weight="400" font-style="" opacity="1" y="25.05" transform="rotate(0)"></text></g></g><g id="SvgjsG1046" transform="translate(248.01248168945312,77.49999237060547)"><path id="SvgjsPath1047" d="M 0 0L 81 0L 81 22.75L 0 22.75Z" stroke="none" fill="none"></path><g id="SvgjsG1048"><text id="SvgjsText1049" font-family="微软雅黑" text-anchor="middle" font-size="13px" width="81px" fill="#323232" font-weight="400" align="middle" anchor="middle" family="微软雅黑" size="13px" weight="400" font-style="" opacity="1" y="1.425" transform="rotate(0)"><tspan id="SvgjsTspan1050" dy="16" x="40.5"><tspan id="SvgjsTspan1051" style="text-decoration:;">辅导员审批</tspan></tspan></text></g></g><g id="SvgjsG1052"><path id="SvgjsPath1053" d="M328.0124816894531 47.74999237060547L350.0124816894531 47.74999237060547L350.0124816894531 47.74999237060547L372.0124816894531 47.74999237060547" stroke="#323232" stroke-width="1" fill="none" marker-end="url(#SvgjsMarker1054)"></path></g><g id="SvgjsG1056" transform="translate(373.0124816894531,24.99999237060547)"><path id="SvgjsPath1057" d="M 0 4Q 0 0 4 0L 75 0Q 79 0 79 4L 79 41.5Q 79 45.5 75 45.5L 4 45.5Q 0 45.5 0 41.5Z" stroke="rgba(50,50,50,1)" stroke-width="2" fill-opacity="1" fill="#ffffff"></path><g id="SvgjsG1058"><text id="SvgjsText1059" font-family="微软雅黑" text-anchor="middle" font-size="13px" width="59px" fill="#323232" font-weight="400" align="middle" anchor="middle" family="微软雅黑" size="13px" weight="400" font-style="" opacity="1" y="12.8" transform="rotate(0)"></text></g></g><g id="SvgjsG1060" transform="translate(424.0124816894531,32.24999237060547)"><path id="SvgjsPath1061" d="M 0 0L 20 0L 20 20L 0 20Z" stroke="none" fill="url(#SvgjsPattern1062)"></path><g id="SvgjsG1064"><text id="SvgjsText1065" font-family="微软雅黑" text-anchor="middle" font-size="13px" width="60px" fill="#323232" font-weight="400" align="middle" anchor="middle" family="微软雅黑" size="13px" weight="400" font-style="" opacity="1" y="25.05" transform="rotate(0)"></text></g></g><g id="SvgjsG1066" transform="translate(372.0124816894531,77.49999237060547)"><path id="SvgjsPath1067" d="M 0 0L 81 0L 81 22.75L 0 22.75Z" stroke="none" fill="none"></path><g id="SvgjsG1068"><text id="SvgjsText1069" font-family="微软雅黑" text-anchor="middle" font-size="13px" width="81px" fill="#323232" font-weight="400" align="middle" anchor="middle" family="微软雅黑" size="13px" weight="400" font-style="" opacity="1" y="1.425" transform="rotate(0)"><tspan id="SvgjsTspan1070" dy="16" x="40.5"><tspan id="SvgjsTspan1071" style="text-decoration:;">学工部审批</tspan></tspan></text></g></g><g id="SvgjsG1072"><path id="SvgjsPath1073" d="M452.0124816894531 47.74999237060547L476.5124816894531 47.74999237060547L476.5124816894531 47.74999237060547L501.0124816894531 47.74999237060547" stroke="#323232" stroke-width="1" fill="none" marker-end="url(#SvgjsMarker1074)"></path></g><g id="SvgjsG1076" transform="translate(501.0124816894531,24.99999237060547)"><path id="SvgjsPath1077" d="M 0 4Q 0 0 4 0L 75 0Q 79 0 79 4L 79 41.5Q 79 45.5 75 45.5L 4 45.5Q 0 45.5 0 41.5Z" stroke="rgba(50,50,50,1)" stroke-width="2" fill-opacity="1" fill="#ffffff"></path><g id="SvgjsG1078"><text id="SvgjsText1079" font-family="微软雅黑" text-anchor="middle" font-size="13px" width="59px" fill="#323232" font-weight="400" align="middle" anchor="middle" family="微软雅黑" size="13px" weight="400" font-style="" opacity="1" y="12.8" transform="rotate(0)"></text></g></g><g id="SvgjsG1080" transform="translate(552.0124816894531,32.24999237060547)"><path id="SvgjsPath1081" d="M 0 0L 20 0L 20 20L 0 20Z" stroke="none" fill="url(#SvgjsPattern1082)"></path><g id="SvgjsG1084"><text id="SvgjsText1085" font-family="微软雅黑" text-anchor="middle" font-size="13px" width="60px" fill="#323232" font-weight="400" align="middle" anchor="middle" family="微软雅黑" size="13px" weight="400" font-style="" opacity="1" y="25.05" transform="rotate(0)"></text></g></g><g id="SvgjsG1086" transform="translate(478.5124816894531,77.49999237060547)"><path id="SvgjsPath1087" d="M 0 0L 124 0L 124 22.75L 0 22.75Z" stroke="none" fill="none"></path><g id="SvgjsG1088"><text id="SvgjsText1089" font-family="微软雅黑" text-anchor="middle" font-size="13px" width="124px" fill="#323232" font-weight="400" align="middle" anchor="middle" family="微软雅黑" size="13px" weight="400" font-style="" opacity="1" y="1.425" transform="rotate(0)"><tspan id="SvgjsTspan1090" dy="16" x="62"><tspan id="SvgjsTspan1091" style="text-decoration:;">宿管手续</tspan></tspan></text></g></g><g id="SvgjsG1092"><path id="SvgjsPath1093" d="M580.0124816894531 47.74999237060547L603.0124816894531 47.74999237060547L603.0124816894531 47.74999237060547L626.0124816894531 47.74999237060547" stroke="#323232" stroke-width="1" fill="none" marker-end="url(#SvgjsMarker1094)"></path></g><g id="SvgjsG1096" transform="translate(630.0124816894531,24.99999237060547)"><path id="SvgjsPath1097" d="M 0 4Q 0 0 4 0L 75 0Q 79 0 79 4L 79 41.5Q 79 45.5 75 45.5L 4 45.5Q 0 45.5 0 41.5Z" stroke="rgba(50,50,50,1)" stroke-width="2" fill-opacity="1" fill="#ffffff"></path><g id="SvgjsG1098"><text id="SvgjsText1099" font-family="微软雅黑" text-anchor="middle" font-size="13px" width="59px" fill="#323232" font-weight="400" align="middle" anchor="middle" family="微软雅黑" size="13px" weight="400" font-style="" opacity="1" y="12.8" transform="rotate(0)"></text></g></g><g id="SvgjsG1100" transform="translate(681.0124816894531,32.24999237060547)"><path id="SvgjsPath1101" d="M 0 0L 20 0L 20 20L 0 20Z" stroke="none" fill="url(#SvgjsPattern1102)"></path><g id="SvgjsG1104"><text id="SvgjsText1105" font-family="微软雅黑" text-anchor="middle" font-size="13px" width="60px" fill="#323232" font-weight="400" align="middle" anchor="middle" family="微软雅黑" size="13px" weight="400" font-style="" opacity="1" y="25.05" transform="rotate(0)"></text></g></g><g id="SvgjsG1106" transform="translate(607.5124816894531,80.49999237060547)"><path id="SvgjsPath1107" d="M 0 0L 124 0L 124 22.75L 0 22.75Z" stroke="none" fill="none"></path><g id="SvgjsG1108"><text id="SvgjsText1109" font-family="微软雅黑" text-anchor="middle" font-size="13px" width="124px" fill="#323232" font-weight="400" align="middle" anchor="middle" family="微软雅黑" size="13px" weight="400" font-style="" opacity="1" y="1.425" transform="rotate(0)"><tspan id="SvgjsTspan1110" dy="16" x="62"><tspan id="SvgjsTspan1111" style="text-decoration:;">校园服务中心</tspan></tspan></text></g></g><g id="SvgjsG1112"><path id="SvgjsPath1113" d="M669.5124816894531 70.49999237060547L669.5124816894531 118.87499237060547L669.5124816894531 118.87499237060547L669.5124816894531 167.24999237060547" stroke="#323232" stroke-width="1" fill="none" marker-end="url(#SvgjsMarker1114)"></path></g><g id="SvgjsG1116" transform="translate(630.0124816894531,168.99999237060547)"><path id="SvgjsPath1117" d="M 0 4Q 0 0 4 0L 75 0Q 79 0 79 4L 79 41.5Q 79 45.5 75 45.5L 4 45.5Q 0 45.5 0 41.5Z" stroke="rgba(50,50,50,1)" stroke-width="2" fill-opacity="1" fill="#ffffff"></path><g id="SvgjsG1118"><text id="SvgjsText1119" font-family="微软雅黑" text-anchor="middle" font-size="13px" width="59px" fill="#323232" font-weight="400" align="middle" anchor="middle" family="微软雅黑" size="13px" weight="400" font-style="" opacity="1" y="12.8" transform="rotate(0)"></text></g></g><g id="SvgjsG1120" transform="translate(681.0124816894531,176.24999237060547)"><path id="SvgjsPath1121" d="M 0 0L 20 0L 20 20L 0 20Z" stroke="none" fill="url(#SvgjsPattern1122)"></path><g id="SvgjsG1124"><text id="SvgjsText1125" font-family="微软雅黑" text-anchor="middle" font-size="13px" width="60px" fill="#323232" font-weight="400" align="middle" anchor="middle" family="微软雅黑" size="13px" weight="400" font-style="" opacity="1" y="25.05" transform="rotate(0)"></text></g></g><g id="SvgjsG1126" transform="translate(603.7624816894531,219.49999237060547)"><path id="SvgjsPath1127" d="M 0 0L 131.5 0L 131.5 20.75L 0 20.75Z" stroke="none" fill="none"></path><g id="SvgjsG1128"><text id="SvgjsText1129" font-family="微软雅黑" text-anchor="middle" font-size="13px" width="132px" fill="#323232" font-weight="400" align="middle" anchor="middle" family="微软雅黑" size="13px" weight="400" font-style="" opacity="1" y="0.42500000000000004" transform="rotate(0)"><tspan id="SvgjsTspan1130" dy="16" x="66"><tspan id="SvgjsTspan1131" style="text-decoration:;">辅导员确认</tspan></tspan></text></g></g><g id="SvgjsG1132"><path id="SvgjsPath1133" d="M630.0124816894531 191.74999237060547L605.0124816894531 191.74999237060547L605.0124816894531 191.74999237060547L580.0124816894531 191.74999237060547" stroke="#323232" stroke-width="1" fill="none" marker-end="url(#SvgjsMarker1134)"></path></g><g id="SvgjsG1136" transform="translate(501.0124816894531,168.99999237060547)"><path id="SvgjsPath1137" d="M 0 4Q 0 0 4 0L 75 0Q 79 0 79 4L 79 41.5Q 79 45.5 75 45.5L 4 45.5Q 0 45.5 0 41.5Z" stroke="rgba(50,50,50,1)" stroke-width="2" fill-opacity="1" fill="#ffffff"></path><g id="SvgjsG1138"><text id="SvgjsText1139" font-family="微软雅黑" text-anchor="middle" font-size="13px" width="59px" fill="#323232" font-weight="400" align="middle" anchor="middle" family="微软雅黑" size="13px" weight="400" font-style="" opacity="1" y="12.8" transform="rotate(0)"></text></g></g><g id="SvgjsG1140" transform="translate(552.0124816894531,176.24999237060547)"><path id="SvgjsPath1141" d="M 0 0L 20 0L 20 20L 0 20Z" stroke="none" fill="url(#SvgjsPattern1142)"></path><g id="SvgjsG1144"><text id="SvgjsText1145" font-family="微软雅黑" text-anchor="middle" font-size="13px" width="60px" fill="#323232" font-weight="400" align="middle" anchor="middle" family="微软雅黑" size="13px" weight="400" font-style="" opacity="1" y="25.05" transform="rotate(0)"></text></g></g><g id="SvgjsG1146" transform="translate(480.4499816894531,219.87499237060547)"><path id="SvgjsPath1147" d="M 0 0L 120.125 0L 120.125 20L 0 20Z" stroke="none" fill="none"></path><g id="SvgjsG1148"><text id="SvgjsText1149" font-family="微软雅黑" text-anchor="middle" font-size="13px" width="121px" fill="#323232" font-weight="400" align="middle" anchor="middle" family="微软雅黑" size="13px" weight="400" font-style="" opacity="1" y="0.050000000000000044" transform="rotate(0)"><tspan id="SvgjsTspan1150" dy="16" x="60.5"><tspan id="SvgjsTspan1151" style="text-decoration:;">抄送学工部、财务部</tspan></tspan></text></g></g><g id="SvgjsG1152"><path id="SvgjsPath1153" d="M501.0124816894531 191.74999237060547L466.0124816894531 191.74999237060547L466.0124816894531 191.74999237060547L431.0124816894531 191.74999237060547" stroke="#323232" stroke-width="1" fill="none" marker-end="url(#SvgjsMarker1154)"></path></g><g id="SvgjsG1156" transform="translate(25.012481689453125,77.49999237060547)"><path id="SvgjsPath1157" d="M 0 0L 81 0L 81 22.75L 0 22.75Z" stroke="none" fill="none"></path><g id="SvgjsG1158"><text id="SvgjsText1159" font-family="微软雅黑" text-anchor="middle" font-size="13px" width="81px" fill="#323232" font-weight="400" align="middle" anchor="middle" family="微软雅黑" size="13px" weight="400" font-style="" opacity="1" y="1.425" transform="rotate(0)"><tspan id="SvgjsTspan1160" dy="16" x="40.5"><tspan id="SvgjsTspan1161" style="text-decoration:;">开始</tspan></tspan></text></g></g><g id="SvgjsG1162" transform="translate(400.0124816894531,176.24999237060547)"><path id="SvgjsPath1163" d="M 0 15.5C 0 -5.166666666666667 31 -5.166666666666667 31 15.5C 31 36.166666666666664 0 36.166666666666664 0 15.5Z" stroke="rgba(50,50,50,1)" stroke-width="2" fill-opacity="1" fill="#ccffcc"></path><g id="SvgjsG1164"><text id="SvgjsText1165" font-family="微软雅黑" text-anchor="middle" font-size="13px" width="11px" fill="#323232" font-weight="400" align="middle" anchor="middle" family="微软雅黑" size="13px" weight="400" font-style="" opacity="1" y="5.55" transform="rotate(0)"></text></g></g><g id="SvgjsG1166" transform="translate(375.0124816894531,218.49999237060547)"><path id="SvgjsPath1167" d="M 0 0L 81 0L 81 22.75L 0 22.75Z" stroke="none" fill="none"></path><g id="SvgjsG1168"><text id="SvgjsText1169" font-family="微软雅黑" text-anchor="middle" font-size="13px" width="81px" fill="#323232" font-weight="400" align="middle" anchor="middle" family="微软雅黑" size="13px" weight="400" font-style="" opacity="1" y="1.425" transform="rotate(0)"><tspan id="SvgjsTspan1170" dy="16" x="40.5"><tspan id="SvgjsTspan1171" style="text-decoration:;">结束</tspan></tspan></text></g></g></svg>